<?xml version="1.0" standalone="no"?><!DOCTYPE svg PUBLIC "-//W3C//DTD SVG 1.1//EN" "http://www.w3.org/Graphics/SVG/1.1/DTD/svg11.dtd"><svg t="1694996119788" class="icon" viewBox="0 0 1024 1024" version="1.1" xmlns="http://www.w3.org/2000/svg" p-id="1099" xmlns:xlink="http://www.w3.org/1999/xlink" width="200" height="200"><path d="M428.27573987 17.3827887c-231.55251626 0-419.26511205 187.7125958-419.26511206 419.2677607s187.7125958 419.26776068 419.26511206 419.26776067c231.55516618 0 419.26776068-187.7125958 419.2677607-419.26776067S659.83090476 17.3827887 428.27573987 17.3827887zM428.27573987 773.12399575c-185.53212473 0-336.47079645-150.94132163-336.47079645-336.47344635s150.938673-336.47344637 336.47079645-336.47344638 336.47344637 150.94132163 336.47344637 336.47344638S613.80653899 773.12399575 428.27573987 773.12399575z" fill="#8a8a8a" p-id="1100"></path><path d="M1003.37299871 936.68847012L817.81702987 751.10070871c-17.39342916 21.52254799-36.72755761 41.31370021-57.39831752 59.67814183l184.4180438 184.44718774c8.08602391 8.08602391 18.6770726 12.12771092 29.26944559 12.12771091s21.18342167-4.04301261 29.2694456-12.12771091C1019.54372223 979.05531475 1019.54372223 952.85919364 1003.37299871 936.68847012z" fill="#8a8a8a" p-id="1101"></path></svg>